<?xml version="1.0" standalone="no"?>
<!DOCTYPE svg PUBLIC "-//W3C//DTD SVG 20010904//EN"
 "http://www.w3.org/TR/2001/REC-SVG-20010904/DTD/svg10.dtd">
<svg version="1.0" xmlns="http://www.w3.org/2000/svg"
 width="243.000000pt" height="243.000000pt" viewBox="0 0 243.000000 243.000000"
 preserveAspectRatio="xMidYMid meet">
<metadata>
Created by potrace 1.11, written by Peter Selinger 2001-2013
</metadata>
<g transform="translate(0.000000,243.000000) scale(0.100000,-0.100000)"
fill="#000000" stroke="none">
<path d="M900 2339 c-42 -8 -67 -31 -392 -356 l-347 -347 -7 -53 c-3 -30 -5
-56 -2 -58 2 -2 190 182 418 410 267 268 408 415 395 414 -11 -1 -40 -5 -65
-10z"/>
<path d="M603 1884 l-458 -466 -3 -50 -3 -51 88 81 c48 44 284 277 523 516
l435 436 -62 0 -61 0 -459 -466z"/>
<path d="M708 1793 c-481 -481 -548 -552 -548 -578 1 -80 -6 -86 600 520 319
319 576 583 572 586 -4 4 -23 10 -42 14 l-35 6 -547 -548z"/>
<path d="M805 1690 l-608 -608 15 -38 16 -39 626 625 c344 343 625 628 623
633 -1 5 -17 15 -33 22 l-31 13 -608 -608z"/>
<path d="M615 2235 c-162 -93 -290 -227 -372 -390 l-35 -70 104 100 c56 55
169 165 251 245 183 180 189 193 52 115z"/>
<path d="M896 1591 c-680 -680 -643 -638 -607 -691 9 -12 139 113 665 640
l655 654 -27 18 c-15 10 -32 18 -37 18 -6 0 -297 -287 -649 -639z"/>
<path d="M995 1490 l-660 -660 27 -27 27 -27 666 665 666 664 -26 23 c-14 12
-29 22 -33 22 -4 0 -304 -297 -667 -660z"/>
<path d="M1090 1394 l-665 -665 30 -24 30 -25 665 665 664 664 -24 26 c-13 14
-26 25 -29 25 -3 0 -305 -299 -671 -666z"/>
<path d="M1191 1296 l-653 -653 31 -23 32 -22 647 646 647 645 -17 28 c-9 15
-20 29 -25 30 -4 2 -302 -291 -662 -651z"/>
<path d="M1292 1206 c-342 -343 -622 -629 -622 -634 0 -5 14 -15 31 -22 l31
-13 613 613 613 613 -16 34 c-9 18 -19 33 -22 33 -4 0 -286 -281 -628 -624z"/>
<path d="M1385 1100 l-588 -588 38 -11 c35 -9 41 -8 74 19 20 16 274 267 565
558 l529 530 -7 36 c-4 19 -10 37 -14 40 -5 3 -273 -260 -597 -584z"/>
<path d="M1690 1213 c-173 -175 -407 -411 -520 -526 l-205 -207 32 -63 c86
-164 221 -276 409 -339 95 -32 297 -32 391 -1 62 21 63 21 101 2 130 -65 299
-5 362 128 31 64 32 159 3 224 l-21 47 20 68 c31 104 30 274 -1 374 -36 117
-88 206 -168 290 -58 59 -73 81 -73 105 0 27 -42 -12 -433 -403 -425 -425
-433 -432 -472 -432 l-40 0 473 473 472 472 0 53 c0 28 -3 52 -8 52 -4 0 -149
-143 -322 -317z m283 -69 c-14 -42 -54 -88 -287 -326 -285 -293 -264 -276
-386 -314 -8 -3 142 153 335 345 192 193 350 349 352 347 2 -1 -5 -25 -14 -52z"/>
</g>
</svg>
